<?xml version="1.0" encoding="UTF-8"?>
<svg id="Layer_1" xmlns="http://www.w3.org/2000/svg" version="1.1" viewBox="0 0 100 100">
  <!-- Generator: Adobe Illustrator 29.1.0, SVG Export Plug-In . SVG Version: 2.1.0 Build 142)  -->
  <defs>
    <style>
      .st0 {
        fill: #fff600;
      }
    </style>
  </defs>
  <rect class="st0" x="-.2" y="-.3" width="100.3" height="100.3" rx="50.1" ry="50.1"/>
  <path d="M19.8,34.8h-3.8c-1,0-1.9.8-1.9,1.9v9.4c0,1,.8,1.9,1.9,1.9s1.9-.8,1.9-1.9v-7.5h1.9v-3.8Z"/>
  <path d="M70.9,19.7H29.1c-4.2,0-7.6,3.4-7.6,7.6v45.1c0,2.1,1.7,3.8,3.8,3.8h49.4c2.1,0,3.8-1.7,3.8-3.8V27.3c0-4.2-3.4-7.6-7.6-7.6ZM32.9,68.6c-2.1,0-3.8-1.7-3.8-3.8s1.7-3.8,3.8-3.8,3.8,1.7,3.8,3.8-1.7,3.8-3.8,3.8ZM67.1,68.6c-2.1,0-3.8-1.7-3.8-3.8s1.7-3.8,3.8-3.8,3.8,1.7,3.8,3.8-1.7,3.8-3.8,3.8ZM70.8,51.8c0,1-.9,1.9-1.9,1.9H31c-1,0-1.9-.9-1.9-1.9v-20.8c0-2.1,1.7-3.8,3.8-3.8h34.1c2.1,0,3.8,1.7,3.8,3.8v20.8Z"/>
  <path d="M84,34.8h-3.8v3.8h1.9v7.5c0,1,.8,1.9,1.9,1.9s1.9-.8,1.9-1.9v-9.4c0-1-.9-1.9-1.9-1.9Z"/>
  <rect x="27.2" y="74.4" width="8" height="9.2" rx="1.7" ry="1.7"/>
  <rect x="63.2" y="74.4" width="8" height="9.2" rx="1.7" ry="1.7"/>
</svg>