<?xml version="1.0" encoding="UTF-8"?>
<svg id="Layer_1" xmlns="http://www.w3.org/2000/svg" version="1.1" viewBox="0 0 100 100">
  <!-- Generator: Adobe Illustrator 29.1.0, SVG Export Plug-In . SVG Version: 2.1.0 Build 142)  -->
  <defs>
    <style>
      .st0 {
        fill: #fff600;
      }
    </style>
  </defs>
  <rect class="st0" x="0" y="0" width="100" height="100" rx="50" ry="50"/>
  <path d="M56.5,30.1h24.2v40.1h-24.2V30.1h0ZM54.5,76.7c-1.1-.9-2.1-1.7-3.2-2.6-.3-.2-.8-.2-1,0-1.1.9-2.1,1.7-3.2,2.6V30.1h7.4v46.5h0ZM45,70.2h-24.6V30.1h24.6v40.1h0ZM54.1,27.9H19.4c-.6,0-1,.5-1,1.1v42.3c0,.6.5,1.1,1,1.1h25.6v6.4c0,.8.9,1.5,1.5,1,.7-.6,1.4-1.2,2.2-1.8.5-.4,1.1-.9,1.6-1.3.1-.1.3-.2.5-.4.1,0,.2.1.3.2.5.5,1,.8,1.5,1.3.8.6,1.6,1.3,2.4,1.9.4.4.9.2,1.2-.1.2-.2.4-.5.4-.9v-6.4h25.3c.3,0,.5-.1.7-.3,0,0,0,0,0,0,0,0,0,0,0,0,.2-.2.3-.4.3-.8V29c0-.6-.5-1.1-1-1.1h-27.7Z"/>
  <path d="M25.1,40.6h14.5c.9,0,.9-1.5,0-1.5h-14.5c-.9,0-.9,1.5,0,1.5h0Z"/>
  <path d="M25.1,46.9h14.5c.9,0,.9-1.5,0-1.5h-14.5c-.9,0-.9,1.5,0,1.5h0Z"/>
  <path d="M25.1,53.2h14.5c.9,0,.9-1.5,0-1.5h-14.5c-.9,0-.9,1.5,0,1.5h0Z"/>
  <path d="M25.1,59.5h14.5c.9,0,.9-1.5,0-1.5h-14.5c-.9,0-.9,1.5,0,1.5h0Z"/>
  <path d="M76.2,39.2h-14.5c-.9,0-.9,1.5,0,1.5h14.5c.9,0,.9-1.5,0-1.5h0Z"/>
  <path d="M76.2,45.4h-14.5c-.9,0-.9,1.5,0,1.5h14.5c.9,0,.9-1.5,0-1.5h0Z"/>
  <path d="M76.2,51.7h-14.5c-.9,0-.9,1.5,0,1.5h14.5c.9,0,.9-1.5,0-1.5h0Z"/>
  <path d="M76.2,58h-14.5c-.9,0-.9,1.5,0,1.5h14.5c.9,0,.9-1.5,0-1.5h0Z"/>
  <path d="M55.8,77.3c-1.6-.7-3.2-1.3-4.8-2-1.7.7-3.5,1.3-5.2,2V29.1h10v48.2Z"/>
</svg>