<?xml version="1.0" encoding="UTF-8"?>
<svg id="Layer_1" xmlns="http://www.w3.org/2000/svg" version="1.1" viewBox="0 0 100 100">
  <!-- Generator: Adobe Illustrator 29.1.0, SVG Export Plug-In . SVG Version: 2.1.0 Build 142)  -->
  <defs>
    <style>
      .st0 {
        fill: #fff600;
      }
    </style>
  </defs>
  <rect class="st0" x=".2" y="0" width="99.8" height="99.8" rx="49.9" ry="49.9"/>
  <g>
    <path d="M82.3,42.2l-7.5-.2c-.6,0-1.1.4-1.1,1,0,.6.4,1.1,1,1.1l7.5.2s0,0,0,0c.6,0,1.1-.5,1.1-1,0-.6-.4-1.1-1-1.1h0Z"/>
    <path d="M71.6,32.7c.2,0,.4,0,.5-.2l6.3-3.8c.5-.3.7-1,.4-1.5-.3-.5-1-.7-1.5-.4l-6.3,3.8c-.5.3-.7,1-.4,1.5.2.3.6.5.9.5h0Z"/>
    <path d="M57,42.6c-.9,0-1.7.9-1.7,2.1v2.1h1.7c.9,0,1.7-.9,1.7-2.1s-.8-2.1-1.7-2.1h0Z"/>
    <path d="M43.2,42.6c-.9,0-1.7.9-1.7,2.1s.8,2.1,1.7,2.1h1.7v-2.1c0-1.2-.8-2.1-1.7-2.1h0Z"/>
    <path d="M57,49h-1.7v20.9h-2.1v-20.9h-6.2v20.9h-2.1v-20.9h-1.7c-2.1,0-3.8-1.9-3.8-4.3s1.7-4.3,3.8-4.3,3.8,1.9,3.8,4.3v2.1h6.2v-2.1c0-2.3,1.7-4.3,3.8-4.3s3.8,1.9,3.8,4.3-1.7,4.3-3.8,4.3h0ZM41.7,75.3v-3.3h16.8v3.3s-16.8,0-16.8,0h0ZM57.8,80.7h-15.4c-.4,0-.7-.2-.7-.3v-3h16.8v3c0,0-.3.3-.7.3h0ZM50.1,23.5c-11.5,0-20.9,8.2-20.9,18.4s1.5,7.9,4.2,11.1c.9,1,2.4,4.6,3.2,6.7l2.9,11.5v9.3c0,1.3,1.2,2.3,2.7,2.4,1.1,2.6,4.2,4.4,7.9,4.4s6.8-1.8,7.9-4.4c1.5,0,2.6-1.1,2.6-2.4v-9.4l2.9-11.5c.6-1.8,2.3-5.7,3.3-6.7,2.8-3.2,4.2-7,4.2-11.1,0-10.1-9.4-18.4-20.9-18.4h0Z"/>
    <path d="M62.5,25.1c.2,0,.3.1.5.1.4,0,.8-.2,1-.6l3.2-6.4c.3-.5,0-1.2-.5-1.4-.5-.3-1.2,0-1.4.5l-3.2,6.4c-.3.5,0,1.2.5,1.4h0Z"/>
    <path d="M50.1,22h0c.6,0,1.1-.5,1.1-1.1v-7.1c0-.6-.5-1.1-1.1-1.1h0c-.6,0-1.1.5-1.1,1.1v7.1c0,.6.5,1.1,1.1,1.1h0Z"/>
    <path d="M25.4,41.9l-7.5.2c-.6,0-1.1.5-1,1.1,0,.6.5,1,1.1,1s0,0,0,0l7.5-.2c.6,0,1.1-.5,1-1.1,0-.6-.5-1.1-1.1-1h0Z"/>
    <path d="M36.2,24.6c.2.4.6.6,1,.6s.3,0,.5-.1c.5-.3.7-.9.5-1.4l-3.2-6.4c-.3-.5-.9-.7-1.4-.5-.5.3-.7.9-.5,1.4l3.2,6.4h0Z"/>
    <path d="M29.5,32.2c.3-.5.1-1.2-.4-1.5l-6.3-3.8c-.5-.3-1.2-.1-1.5.4-.3.5-.1,1.2.4,1.5l6.3,3.8c.2.1.4.2.5.2.4,0,.7-.2.9-.5h0Z"/>
  </g>
</svg>