<?xml version="1.0" encoding="UTF-8"?>
<svg id="Layer_1" xmlns="http://www.w3.org/2000/svg" version="1.1" viewBox="0 0 100 100">
  <!-- Generator: Adobe Illustrator 29.1.0, SVG Export Plug-In . SVG Version: 2.1.0 Build 142)  -->
  <defs>
    <style>
      .st0 {
        fill: #fff600;
      }
    </style>
  </defs>
  <rect class="st0" x="0" y="0" width="100" height="100" rx="50" ry="50"/>
  <path d="M69.6,25.1c-4.6-6-12.2-9.8-20-9.8-9.2,0-16.7,5.3-20.8,11.2-6.6,9.5-6,23.2,1.8,33.9,6.5,8.4,13.1,16.7,19.6,25.1l16.5-22.3c9.7-12.4,10.5-28.1,2.9-38ZM49.4,53.5c-7,0-12.6-5.7-12.6-12.6s5.7-12.6,12.6-12.6,12.6,5.7,12.6,12.6-5.7,12.6-12.6,12.6Z"/>
</svg>