<?xml version="1.0" encoding="UTF-8"?>
<svg id="Layer_1" xmlns="http://www.w3.org/2000/svg" version="1.1" viewBox="0 0 100 100">
  <!-- Generator: Adobe Illustrator 29.1.0, SVG Export Plug-In . SVG Version: 2.1.0 Build 142)  -->
  <defs>
    <style>
      .st0 {
        fill: #fff600;
      }
    </style>
  </defs>
  <rect class="st0" x="0" y="0" width="100" height="100" rx="50" ry="50"/>
  <path d="M57.5,75.8c2-3.6,3.4-8.6,4.2-14.2h13.2c-3.4,6.9-9.7,12.2-17.3,14.2h0ZM25.9,61.6h13.2c.8,5.6,2.2,10.6,4.2,14.2-7.6-2.1-13.9-7.3-17.3-14.2h0ZM43.2,23.1c-2,3.6-3.4,8.6-4.2,14.2h-13.2c3.4-6.9,9.7-12.2,17.3-14.2h0ZM74.9,37.3h-13.2c-.8-5.6-2.2-10.6-4.2-14.2,7.6,2.1,13.9,7.3,17.3,14.2h0ZM62.2,41.9h14.4c.7,2.4,1.1,5,1.1,7.6s-.4,5.2-1.1,7.6h-14.4c.2-2.5.3-5,.3-7.6s-.1-5.1-.3-7.6h0ZM50.4,22.1c1.2,0,3.2,2.2,4.8,7.1.8,2.4,1.4,5.1,1.9,8.1h-13.4c.5-3,1.1-5.7,1.9-8.1,1.6-4.9,3.6-7.1,4.8-7.1h0ZM23.1,49.5c0-2.6.4-5.2,1.1-7.6h14.4c-.2,2.5-.3,5-.3,7.6s.1,5.1.3,7.6h-14.4c-.7-2.4-1.1-5-1.1-7.6h0ZM43.1,57c-.2-2.4-.3-5-.3-7.6s.1-5.1.3-7.6h14.5c.2,2.4.3,5,.3,7.6s-.1,5.1-.3,7.6h-14.5ZM50.4,76.8c-1.2,0-3.2-2.2-4.8-7.1-.8-2.4-1.4-5.1-1.9-8.1h13.4c-.5,3-1.1,5.7-1.9,8.1-1.6,4.9-3.6,7.1-4.8,7.1h0ZM80.5,60c1.1-3.3,1.8-6.8,1.8-10.5s-.6-7.2-1.8-10.5c0,0,0-.2-.1-.3-4.4-12.3-16.2-21.1-30-21.1s-25.6,8.8-30,21.1c0,0,0,.2-.1.3-1.1,3.3-1.8,6.8-1.8,10.5s.6,7.2,1.8,10.5c0,0,0,.2.1.3,4.4,12.3,16.2,21.1,30,21.1s25.6-8.8,30-21.1c0,0,0-.2.1-.3h0Z"/>
</svg>