<?xml version="1.0" encoding="UTF-8"?>
<svg id="Layer_1" xmlns="http://www.w3.org/2000/svg" version="1.1" viewBox="0 0 100 100">
  <!-- Generator: Adobe Illustrator 29.1.0, SVG Export Plug-In . SVG Version: 2.1.0 Build 142)  -->
  <defs>
    <style>
      .st0 {
        fill: #fff600;
      }

      .st1 {
        stroke: #000;
        stroke-miterlimit: 10;
        stroke-width: 1.4px;
      }
    </style>
  </defs>
  <rect class="st0" x=".4" y=".3" width="99.7" height="99.7" rx="49.9" ry="49.9"/>
  <g>
    <g>
      <g>
        <path class="st1" d="M19.7,61.4h61.3V27.3c0-1-.8-1.9-1.9-1.9H21.5c-1,0-1.9.8-1.9,1.9v34.2h0ZM81.7,62.8H19c-.4,0-.7-.3-.7-.7V27.3c0-1.8,1.5-3.3,3.3-3.3h57.6c1.8,0,3.2,1.5,3.2,3.3v34.9c0,.4-.3.7-.7.7h0Z"/>
        <path class="st1" d="M81.7,63.5H19c-.8,0-1.4-.6-1.4-1.4V27.3c0-2.2,1.8-4,4-4h57.6c2.2,0,4,1.8,4,4v34.9c0,.8-.6,1.4-1.4,1.4ZM20.4,60.7h59.9V27.3c0-.7-.5-1.2-1.2-1.2H21.5c-.7,0-1.2.5-1.2,1.2v33.5Z"/>
      </g>
      <g>
        <path class="st1" d="M19.7,62.8v5.3c0,1,.8,1.9,1.9,1.9h57.6c1,0,1.9-.8,1.9-1.9v-5.3H19.7ZM79.1,71.3H21.5c-1.8,0-3.3-1.5-3.3-3.3v-5.9c0-.4.3-.7.7-.7h62.7c.4,0,.7.3.7.7v5.9c0,1.8-1.5,3.3-3.2,3.3h0Z"/>
        <path class="st1" d="M79.1,72H21.5c-2.2,0-4-1.8-4-4v-5.9c0-.8.6-1.4,1.4-1.4h62.7c.8,0,1.4.6,1.4,1.4v5.9c0,2.2-1.8,4-4,4ZM20.4,63.5v4.6c0,.7.5,1.2,1.2,1.2h57.6c.7,0,1.2-.5,1.2-1.2v-4.6H20.4Z"/>
      </g>
      <g>
        <path class="st1" d="M44.2,78.5h12.3v-7.1h-12.3v7.1h0ZM57.2,79.8h-13.7c-.4,0-.7-.3-.7-.7v-8.5c0-.4.3-.7.7-.7h13.7c.4,0,.7.3.7.7v8.5c0,.4-.3.7-.7.7h0Z"/>
        <path class="st1" d="M57.2,80.5h-13.7c-.8,0-1.4-.6-1.4-1.4v-8.5c0-.8.6-1.4,1.4-1.4h13.7c.8,0,1.4.6,1.4,1.4v8.5c0,.8-.6,1.4-1.4,1.4ZM44.9,77.8h10.9v-5.7h-10.9v5.7Z"/>
      </g>
      <g>
        <path class="st1" d="M61.5,79.8h-22.4c-.4,0-.7-.3-.7-.7s.3-.7.7-.7h22.4c.4,0,.7.3.7.7s-.3.7-.7.7h0Z"/>
        <path class="st1" d="M61.5,80.5h-22.4c-.8,0-1.4-.6-1.4-1.4s.6-1.4,1.4-1.4h22.4c.8,0,1.4.6,1.4,1.4s-.6,1.4-1.4,1.4Z"/>
      </g>
    </g>
    <g>
      <path d="M39.4,43.1l-6.7,2.5,6.7,2.4v2.5l-9.6-3.6v-2.6l9.6-3.6v2.5Z"/>
      <path d="M52.3,35.7h2.8l-6.6,18.9h-2.8l6.6-18.9Z"/>
      <path d="M70.8,44.3v2.6l-9.6,3.6v-2.5l6.7-2.4-6.7-2.5v-2.5l9.6,3.6Z"/>
    </g>
    <rect x="43.2" y="71.4" width="13.4" height="6.3"/>
  </g>
  <rect class="st1" x="19.7" y="63.2" width="59.6" height="6"/>
</svg>