<?xml version="1.0" encoding="UTF-8"?>
<svg id="Layer_1" xmlns="http://www.w3.org/2000/svg" version="1.1" viewBox="0 0 300 300">
  <!-- Generator: Adobe Illustrator 29.1.0, SVG Export Plug-In . SVG Version: 2.1.0 Build 142)  -->
  <defs>
    <style>
      .st0 {
        fill: #fff;
      }
    </style>
  </defs>
  <g>
    <rect class="st0" x="6.5" y="7.5" width="286.9" height="287.9"/>
    <path d="M286.9,14.1v274.9H13.1V14.1h273.9M300,1H0v301h300V1h0Z"/>
  </g>
  <g>
    <path d="M28.9,104.4h48.2c35.7,0,60.1,22,60.1,55.1s-24.4,55.1-60.1,55.1H28.9v-110.2ZM76.1,197.3c24.6,0,40.5-15,40.5-37.8s-15.9-37.8-40.5-37.8h-26.8v75.6h26.8Z"/>
    <path d="M249.9,214.6l-.2-73-36.2,60.4h-9.1l-36.2-59.5v72.1h-19.5v-110.2h16.8l43.8,73,43-73h16.8l.2,110.2h-19.4Z"/>
  </g>
</svg>