<?xml version="1.0" encoding="UTF-8"?>
<svg id="Layer_1" xmlns="http://www.w3.org/2000/svg" version="1.1" viewBox="0 0 100 100">
  <!-- Generator: Adobe Illustrator 29.1.0, SVG Export Plug-In . SVG Version: 2.1.0 Build 142)  -->
  <defs>
    <style>
      .st0 {
        fill: #fff600;
      }
    </style>
  </defs>
  <rect class="st0" x="0" y="0" width="99.8" height="99.8" rx="49.9" ry="49.9"/>
  <path d="M46.3,42.4c0-.5,1.4-1.3,3.5-1.3s3.5.8,3.5,1.3-1.4,1.3-3.5,1.3-3.5-.8-3.5-1.3h0ZM15.8,41.7c8.2-2.6,28-10,33.4-12.1l34.9,11.9-34.3,14.9-22.7-9.8,19.1-2.5c.8.5,2.1.8,3.5.8,2.6,0,4.6-1.1,4.6-2.4s-2-2.4-4.6-2.4-4.1.8-4.5,1.9l-22.2,2.9-7.3-3.2h0ZM68.7,68.2c0,.9-.7,1.6-1.6,1.6h-32.1c-.9,0-1.6-.7-1.6-1.6v-16.5l16,6.9c.1,0,.3,0,.5,0s.3,0,.5,0l18.5-8v17.5h0ZM21.1,63.2l1.2-6.9c0-.4,0-.8-.4-1.1-.2-.2-.3-.4-.3-.7,0-.5.4-.8.8-.8s.8.4.8.8-.1.4-.2.6c-.2.2-.3.6-.3.9l1,7.2h-2.7ZM21.8,51.5c-1.4.3-2.5,1.6-2.5,3.1s.2,1.4.6,1.9l-1.3,7.7c0,.3,0,.7.3.9.2.3.5.4.9.4h5.3c.3,0,.6-.1.9-.4.2-.2.3-.6.3-.9l-1.1-8c.3-.5.4-1,.4-1.6,0-1.1-.6-2.1-1.5-2.7v-4.2l7,3.1v17.5c0,2.2,1.8,3.9,3.9,3.9h32.1c2.2,0,3.9-1.8,3.9-3.9v-18.5l16.8-7.3c.4-.2.7-.6.7-1.1,0-.5-.3-.9-.8-1l-38.1-13c-.3,0-.5,0-.8,0-13,4.9-34.5,12.8-36.5,12.9-.5,0-1,.4-1.1.9-.1.5.2,1.1.7,1.3l9.9,4.3v4.8h0Z"/>
  <ellipse cx="50.2" cy="42.4" rx="4.8" ry="3.6"/>
  <rect x="20.8" y="52.7" width="3.6" height="11.9"/>
  <path d="M69.3,70.6c-12.2-.1-24.4-.3-36.6-.4-.1-6.4-.3-12.7-.4-19.1,4.8,1.9,9.5,3.7,14.3,5.6,1.1.4,2.1.8,3.2,1.2,6.6-2.7,13.3-5.3,19.9-8-.1,6.9-.3,13.8-.4,20.7Z"/>
</svg>