<?xml version="1.0" encoding="UTF-8"?>
<svg id="Layer_1" xmlns="http://www.w3.org/2000/svg" version="1.1" viewBox="0 0 100 100">
  <!-- Generator: Adobe Illustrator 29.1.0, SVG Export Plug-In . SVG Version: 2.1.0 Build 142)  -->
  <defs>
    <style>
      .st0 {
        fill: #fff600;
      }

      .st1 {
        fill-rule: evenodd;
      }
    </style>
  </defs>
  <rect class="st0" x="-.2" y="0" width="100.2" height="100.2" rx="50.1" ry="50.1"/>
  <path class="st1" d="M48.7,11.3c-6.8,5.2-13.7,10.3-20.5,15.5v58.4h41.5V26.8c-7-5.2-14-10.3-21-15.5ZM56.1,39.9h8.4v8.4h-8.4v-8.4ZM44.6,39.9h8.4v8.4h-8.4v-8.4ZM33.1,39.9h8.4v8.4h-8.4v-8.4ZM33.1,52.8h8.4v8.4h-8.4v-8.4ZM41.5,75h-8.4v-8.4h8.4v8.4ZM44.6,52.8h8.4v8.4h-8.4v-8.4ZM53,75h-8.4v-8.4h8.4v8.4ZM56.1,52.8h8.4v8.4h-8.4v-8.4ZM64.5,75h-8.4v-8.4h8.4v8.4Z"/>
</svg>